<?xml version="1.0" encoding="iso-8859-1"?>
<!-- Generator: Adobe Illustrator 17.1.0, SVG Export Plug-In . SVG Version: 6.00 Build 0)  -->
<!DOCTYPE svg PUBLIC "-//W3C//DTD SVG 1.1//EN" "http://www.w3.org/Graphics/SVG/1.1/DTD/svg11.dtd">
<svg version="1.1" id="Layer_1" xmlns="http://www.w3.org/2000/svg" xmlns:xlink="http://www.w3.org/1999/xlink" x="0px" y="0px"
	 viewBox="0 0 369.775 269.75" style="enable-background:new 0 0 369.775 269.75;" xml:space="preserve">
<path style="fill:#31AFCB;" d="M27.416,250.533c-2.749,0-4.917-0.51-6.629-1.557c-2.302-1.437-3.904-3.929-4.793-7.429
	c-1.188-2.303-1.813-4.865-1.813-7.451v-13.904c-0.152-0.327-0.267-0.45-0.285-0.47l0,0c-0.012,0-0.251-0.109-0.849-0.145
	c-0.101-0.007-0.196-0.009-0.296-0.009c-0.616,0-1.746,0.103-3.625,0.592l-8.782,2.282L0,206.116l6.94-1.806
	c3.778-0.982,5.327-2.223,5.96-3.091c0.666-0.898,1.102-2.353,1.28-4.235v-7.023l-0.103-4.857c-0.03-1.422,0.003-2.789,0.103-4.171
	v-1.554c0-7.353,4.963-13.812,12.069-15.71c0.212-0.062,0.372-0.106,0.534-0.144l308.438-71.712
	c1.219-0.283,2.464-0.426,3.704-0.426c6.832,0,12.978,4.338,15.291,10.795l0.161,0.449l0.051,0.475
	c0.134,1.256,0.212,2.459,0.237,3.677l0.193,9.122c0.024,1.157,0.112,2.186,0.263,3.058c0.109,0.626,0.199,0.958,0.256,1.125
	c0.253,0.747,0.475,0.986,0.5,1.012h0.001c0.011,0,0.249,0.11,0.853,0.146c0.097,0.006,0.191,0.008,0.29,0.008
	c0.617,0,1.747-0.103,3.628-0.592l8.782-2.283l0.344,16.328l-6.941,1.805c-3.777,0.982-5.327,2.224-5.961,3.092
	c-0.956,1.289-1.436,3.763-1.368,6.989l0.192,9.125c0.062,2.974-0.146,5.688-0.62,8.066c-0.662,3.322-1.862,6.027-3.568,8.039
	c-2.887,3.336-7.97,5.927-15.565,7.951l-0.434,0.121l-11.213,2.92l-0.009-0.329L34.14,249.947c-1.268,0.294-2.595,0.448-3.854,0.424
	C29.266,250.478,28.302,250.533,27.416,250.533z"/>
<path style="fill:#31AFCB;" d="M97.138,228.021c4.217,3.632,8.686,6.978,13.372,10.017l59.312-13.525
	c0.728-0.171,1.456,0.28,1.627,1.008l1.245,5.299c0,0,0,0,0,0s0,0,0,0l0.64,2.722l9.882-2.322l-1.569-6.676
	c-0.171-0.728,0.28-1.456,1.008-1.627l18.886-4.438c0.728-0.171,1.456,0.28,1.627,1.008l1.076,4.577l5.271-1.239
	c0.728-0.171,1.456,0.28,1.627,1.008s-0.28,1.456-1.008,1.627l-5.271,1.238l0.729,3.102l16.253-3.819l-1.474-6.274
	c-0.171-0.728,0.28-1.456,1.008-1.627l22.838-5.366l-1.569-6.676c-0.171-0.728,0.281-1.456,1.008-1.627l10.102-2.374c0,0,0,0,0,0
	c0,0,0,0,0,0l17.129-4.025c0.728-0.171,1.456,0.28,1.627,1.008l2.314,9.848v0v0l0.079,0.335
	c6.063-7.975,11.182-16.708,15.168-26.042L97.138,228.021z"/>
<g>
	<g>
		<linearGradient id="SVGID_1_" gradientUnits="userSpaceOnUse" x1="54.4722" y1="120.0241" x2="299.8889" y2="120.0241">
			<stop  offset="0" style="stop-color:#A6C5ED"/>
			<stop  offset="0.4979" style="stop-color:#D3CADD"/>
			<stop  offset="1" style="stop-color:#FDCECF"/>
		</linearGradient>
		<path style="fill:url(#SVGID_1_);" d="M258.805,43.262c-5.255,15.504-19.917,26.667-37.196,26.667
			c-21.692,0-39.277-17.585-39.277-39.277c0-6.536,1.605-12.693,4.43-18.115c-3.162-0.244-6.357-0.37-9.581-0.37
			c-67.77,0-122.708,54.938-122.708,122.708c0,37.185,16.542,70.504,42.666,93.007l192.939-44.858
			c6.313-14.784,9.812-31.057,9.812-48.149C299.889,98.448,284.011,65.735,258.805,43.262z"/>
		<path style="fill:#31AFCB;" d="M258.805,43.262c-5.255,15.504-19.917,26.667-37.196,26.667c-21.692,0-39.277-17.585-39.277-39.277
			c0-6.536,1.605-12.693,4.43-18.115c-3.162-0.244-6.357-0.37-9.581-0.37c-67.77,0-122.708,54.938-122.708,122.708
			c0,37.185,16.542,70.504,42.666,93.007l192.939-44.858c6.313-14.784,9.812-31.057,9.812-48.149
			C299.889,98.448,284.011,65.735,258.805,43.262z"/>
		<path style="fill:#41474A;" d="M277.801,221.371l-1.622-6.902v0v0l-1.27-5.403l-0.079-0.335v0v0l-0.929-3.953v0v0l-1.385-5.895
			c-0.171-0.728-0.9-1.179-1.627-1.008L253.76,201.9c0,0,0,0,0,0c0,0,0,0,0,0l-10.102,2.374c-0.728,0.171-1.179,0.899-1.008,1.627
			l1.569,6.676l-22.838,5.366c-0.728,0.171-1.179,0.899-1.008,1.627l1.474,6.274l-16.253,3.819l-0.729-3.102l5.271-1.238
			c0.728-0.171,1.179-0.899,1.008-1.627c-0.171-0.728-0.9-1.179-1.627-1.008l-5.271,1.239l-1.075-4.577
			c-0.171-0.728-0.9-1.179-1.627-1.008l-18.886,4.438c-0.728,0.171-1.179,0.899-1.008,1.627l0.929,3.952c0,0,0,0,0,0.001
			c0,0,0,0,0,0.001l0.64,2.722l-9.882,2.322l-0.64-2.722c0,0,0-0.001,0-0.001c0,0,0,0,0,0l-1.245-5.299
			c-0.171-0.728-0.9-1.179-1.627-1.008l-59.312,13.525l-0.008,0.002c0.007,0.005,0.025,0.01,0.034,0.015
			c0.104,0.067,0.208,0.134,0.313,0.201c1.015,0.654,2.039,1.294,3.074,1.919c0.005,0.005,0.01,0.009,0.015,0.014l0.007-0.001
			c0.012,0.007,0.024,0.015,0.037,0.022l19.348-4.341c0.002,0.01,0.002,0.02,0.004,0.03l0.949,4.04
			c0.082,0.35,0.3,0.652,0.605,0.841l2.104,1.303l-1.303,2.104c-0.394,0.635-0.198,1.47,0.438,1.863l3.061,1.896
			c0.318,0.197,0.685,0.246,1.022,0.167s0.644-0.287,0.841-0.605c0.394-0.635,0.198-1.47-0.438-1.863l-1.91-1.183l1.303-2.104
			c0.394-0.635,0.198-1.47-0.438-1.863l-2.778-1.721l-0.821-3.495c-0.002-0.01-0.007-0.019-0.01-0.029l33.164-7.793l0.626,2.664
			l-5.051,1.187c-0.728,0.171-1.179,0.899-1.008,1.627c0.171,0.728,0.899,1.179,1.627,1.008l5.051-1.187l0.33,1.405l-10.761,2.529
			c-0.728,0.171-1.179,0.899-1.008,1.627c0.171,0.728,0.9,1.179,1.627,1.008l10.761-2.529l1.541,6.559
			c0.171,0.728,0.9,1.179,1.627,1.008l3.953-0.929l1.745,7.424c0.171,0.728,0.9,1.179,1.627,1.008l2.655-0.624l1.903,8.188
			l2.615-0.701l-2.172-9.344c-0.181-0.673-0.839-1.084-1.512-0.981c-0.191-0.041-0.392-0.046-0.594,0.001l-2.196,0.516l-0.565-2.406
			l5.38-1.264c0.728-0.171,1.179-0.899,1.008-1.627c-0.171-0.728-0.899-1.179-1.627-1.008l-5.38,1.264l-0.56-2.383
			c-0.171-0.728-0.9-1.179-1.627-1.008l-3.953,0.929l-1.231-5.241l17.788-4.18l3.096,13.177c0.171,0.728,0.9,1.179,1.627,1.008
			l16.69-3.922c0.728-0.171,1.179-0.899,1.008-1.627c-0.171-0.728-0.9-1.179-1.627-1.008l-15.373,3.612l-3.096-13.177
			c-0.171-0.728-0.9-1.179-1.627-1.008l-6.588,1.548l-0.33-1.405l5.051-1.187c0.728-0.171,1.179-0.899,1.008-1.627
			c-0.171-0.728-0.9-1.179-1.627-1.008l-5.051,1.187l-0.31-1.318l16.251-3.819l2.424,10.315c0.171,0.728,0.9,1.179,1.627,1.008
			l26.792-6.296l3.057,13.009c0.171,0.728,0.9,1.179,1.627,1.008l5.806-1.364l5.174-1.216c0.728-0.171,1.179-0.899,1.008-1.627
			c-0.088-0.376-0.327-0.676-0.637-0.857c-0.289-0.169-0.639-0.234-0.99-0.151l-9.663,2.271l-3.057-13.009
			c-0.171-0.728-0.9-1.179-1.627-1.008l-7.905,1.857l-1.165-4.957l22.838-5.366c0.728-0.171,1.179-0.899,1.008-1.627l-1.569-6.676
			l7.467-1.755l0.511,2.177l-1.721,2.778c-0.394,0.635-0.198,1.47,0.438,1.863l2.104,1.303l-1.183,1.91
			c-0.394,0.635-0.198,1.47,0.438,1.863c0.318,0.197,0.685,0.246,1.022,0.167c0.337-0.079,0.644-0.287,0.841-0.605l1.896-3.061
			c0.394-0.635,0.198-1.47-0.438-1.863l-2.104-1.303l1.303-2.104c0.189-0.305,0.249-0.673,0.167-1.022l-0.64-2.723l14.494-3.406
			l0.766,3.259l-5.051,1.187c-0.728,0.171-1.179,0.899-1.008,1.627c0.171,0.728,0.9,1.179,1.627,1.008l5.051-1.187l0.31,1.318
			l-5.051,1.187c-0.728,0.171-1.179,0.899-1.008,1.627c0.171,0.728,0.9,1.179,1.627,1.008l5.051-1.187l0.264,1.122
			c-0.705,0.875-1.421,1.74-2.149,2.595l-2.437,0.573c-0.728,0.171-1.179,0.899-1.008,1.627c0.096,0.408,0.37,0.724,0.719,0.897
			c-1.969,2.161-4.013,4.252-6.131,6.267l-3.47,0.815c-0.728,0.171-1.179,0.899-1.008,1.627c0.102,0.434,0.405,0.766,0.785,0.93
			c0.257,0.111,0.549,0.147,0.843,0.078l17.315-4.069c0.097-0.023,0.189-0.057,0.275-0.099c0.096-0.001,0.193-0.011,0.291-0.034
			C277.52,222.827,277.972,222.098,277.801,221.371z"/>
		<path style="fill:#CB9749;" d="M111.045,238.278"/>
	</g>
	<path style="fill:#31AFCB;" d="M260.846,29.086c-18.453-14.614-40.819-24.497-65.271-27.832C189.56,0.433,183.421,0,177.181,0
		C102.691,0,42.306,60.386,42.306,134.875S102.691,269.75,177.181,269.75s134.875-60.386,134.875-134.875
		C312.056,91.993,292.04,53.789,260.846,29.086z M177.181,264.083c-71.36,0-129.208-57.849-129.208-129.208
		S105.821,5.667,177.181,5.667c4.582,0,9.107,0.242,13.566,0.708c26.439,2.759,50.502,13.494,69.751,29.751
		c28.063,23.701,45.891,59.141,45.891,98.749C306.389,206.235,248.54,264.083,177.181,264.083z"/>
	<path style="fill:#EEFFFF;" d="M260.498,36.126c-19.249-16.258-43.312-26.993-69.751-29.751c-4.459-0.465-8.984-0.708-13.566-0.708
		c-71.36,0-129.208,57.849-129.208,129.208s57.849,129.208,129.208,129.208s129.208-57.849,129.208-129.208
		C306.389,95.266,288.56,59.827,260.498,36.126z M177.181,257.583c-67.77,0-122.708-54.938-122.708-122.708
		S109.411,12.167,177.181,12.167c3.224,0,6.42,0.126,9.581,0.37c27.573,2.13,52.586,13.377,72.043,30.725
		c25.206,22.474,41.084,55.187,41.084,91.613C299.889,202.645,244.95,257.583,177.181,257.583z"/>
</g>
<g>
	<path style="fill:#FFFFFF;" d="M164.626,65.61l0.808-1.203l-1.21-0.51l0.172-0.487l1.247,0.395l0.064-1.368h0.527l0.064,1.368
		l1.247-0.395l0.172,0.487l-1.21,0.51l0.808,1.203l-0.449,0.312l-0.896-1.151l-0.896,1.151L164.626,65.61z"/>
</g>
<g>
	<path style="fill:#FFFFFF;" d="M144.432,30.373l1.06-1.58l-1.588-0.669l0.226-0.639l1.637,0.518l0.084-1.795h0.692l0.084,1.795
		l1.637-0.518l0.226,0.639l-1.588,0.669l1.06,1.58l-0.59,0.41l-1.176-1.511l-1.176,1.511L144.432,30.373z"/>
</g>
<g>
	<path style="fill:#FFFFFF;" d="M129.441,55.66l1.558-2.32l-2.333-0.983l0.332-0.938l2.405,0.761l0.124-2.638h1.017l0.124,2.638
		l2.405-0.761l0.332,0.938l-2.333,0.983l1.558,2.32l-0.867,0.602l-1.727-2.219l-1.727,2.219L129.441,55.66z"/>
</g>
<g>
	<path style="fill:#FFFFFF;" d="M134.835,125.716l0.808-1.203l-1.21-0.51l0.172-0.487l1.247,0.395l0.064-1.368h0.527l0.064,1.368
		l1.247-0.395l0.172,0.487l-1.21,0.51l0.808,1.203l-0.45,0.312l-0.896-1.151l-0.896,1.151L134.835,125.716z"/>
</g>
<path style="fill:#BD548B;" d="M136.646,76.852c-0.923-3.046-4.152-4.781-7.188-3.842c-3.046,0.923-4.767,4.141-3.843,7.187
	c3.054,10.07,3.088,17.645,0.096,21.334c-1.244,1.532-2.969,2.323-4.537,2.728l-9.747-40.969c-0.737-3.096-3.844-5.009-6.94-4.273
	c-3.097,0.737-5.009,3.845-4.273,6.94l12.628,53.079c-1.709,0.561-3.879,0.891-5.988,0.118c-4.519-1.659-8.351-8.218-10.79-18.471
	c-0.737-3.096-3.844-5.009-6.94-4.273s-5.009,3.845-4.273,6.94c3.461,14.545,9.528,23.502,18.033,26.623
	c4.1,1.504,8.19,1.37,11.706,0.534c0.314-0.075,0.618-0.162,0.923-0.247l3.211,13.495c0.737,3.096,3.844,5.009,6.94,4.273
	c3.097-0.737,5.009-3.845,4.273-6.94l-4.825-20.282c-0.002-0.009-0.004-0.017-0.006-0.026l-1.266-5.321
	c3.69-0.934,7.68-2.871,10.705-6.526C140.29,101.994,140.997,91.2,136.646,76.852z"/>
<path style="fill:#BD548B;" d="M132.458,119.986c-0.306-1.261,0.469-2.539,1.73-2.838c1.261-0.306,2.532,0.468,2.838,1.729
	c1.012,4.17,2.568,6.839,4.383,7.515c0.754,0.281,1.524,0.201,2.159,0.019L138.51,110c-0.382-1.24,0.313-2.556,1.554-2.938
	c1.24-0.382,2.556,0.314,2.938,1.554l6.552,21.262c0.717-0.157,1.547-0.49,2.128-1.198c1.244-1.518,1.233-4.616-0.033-8.723
	c-0.382-1.24,0.313-2.556,1.554-2.938c1.24-0.382,2.556,0.314,2.938,1.554c1.795,5.827,1.518,10.229-0.824,13.087
	c-1.129,1.377-2.594,2.177-4.002,2.611c-0.126,0.039-0.251,0.071-0.375,0.104l1.666,5.406c0.382,1.24-0.313,2.556-1.554,2.938
	c-1.24,0.382-2.556-0.314-2.938-1.554l-2.504-8.124c-0.001-0.003-0.002-0.007-0.003-0.01l-0.657-2.131
	c-1.49,0.436-3.293,0.581-5.112-0.076C136.382,129.574,133.899,125.928,132.458,119.986z"/>
<g>
	<path style="fill:#FFFFFF;" d="M73.983,103.637l1.236-1.842l-1.851-0.78l0.264-0.745l1.908,0.604l0.098-2.093h0.807l0.098,2.093
		l1.908-0.604l0.264,0.745l-1.852,0.78l1.236,1.842l-0.688,0.478l-1.371-1.761l-1.371,1.761L73.983,103.637z"/>
</g>
<path style="fill:#BD548B;" d="M257.266,226.326c-0.171-0.728,0.28-1.456,1.008-1.627l3.47-0.815
	c2.117-2.016,4.162-4.106,6.131-6.267c-0.348-0.173-0.623-0.489-0.719-0.897c-0.171-0.728,0.281-1.456,1.008-1.627l2.437-0.573
	c0.728-0.855,1.444-1.72,2.149-2.595l-0.264-1.122l-5.051,1.187c-0.728,0.171-1.456-0.28-1.627-1.008
	c-0.171-0.728,0.28-1.456,1.008-1.627l5.051-1.187l-0.31-1.318l-5.051,1.187c-0.728,0.171-1.456-0.28-1.627-1.008
	c-0.171-0.728,0.28-1.456,1.008-1.627l5.051-1.187l-0.766-3.259l-14.494,3.406l0.64,2.723c0.082,0.35,0.022,0.717-0.167,1.022
	l-1.303,2.104l2.104,1.303c0.635,0.393,0.832,1.228,0.438,1.863l-1.896,3.061c-0.197,0.318-0.504,0.526-0.841,0.605
	c-0.337,0.079-0.705,0.03-1.022-0.167c-0.635-0.393-0.832-1.228-0.438-1.863l1.183-1.91l-2.104-1.303
	c-0.635-0.393-0.832-1.228-0.438-1.863l1.721-2.778l-0.512-2.177l-7.467,1.755l1.569,6.676c0.171,0.728-0.28,1.456-1.008,1.627
	l-22.838,5.366l1.165,4.957l7.904-1.857c0.728-0.171,1.456,0.28,1.627,1.008l3.057,13.009l9.663-2.271
	c0.351-0.083,0.702-0.017,0.99,0.151c3.596-2.532,7.048-5.25,10.345-8.144C257.671,227.091,257.368,226.76,257.266,226.326z"/>
<g>
	<path style="fill:#BD548B;" d="M111.325,238.022l58.479-13.514l-59.312,13.525c0.009,0.006,0.018,0.011,0.027,0.017
		c0.07,0.038,0.207,0.08,0.405,0.145C111.046,238.119,111.178,238.057,111.325,238.022z"/>
	<path style="fill:#BD548B;" d="M110.519,238.049c0.104,0.067,0.208,0.134,0.313,0.201c0.029-0.021,0.061-0.037,0.092-0.055
		C110.726,238.13,110.59,238.087,110.519,238.049z"/>
	<path style="fill:#BD548B;" d="M110.485,238.034c0.007,0.005,0.025,0.01,0.034,0.015c-0.009-0.006-0.018-0.011-0.027-0.017
		L110.485,238.034z"/>
	<path style="fill:#BD548B;" d="M165.3,233.939c-0.728,0.171-1.456-0.28-1.627-1.008s0.28-1.456,1.008-1.627l5.051-1.187
		l-0.626-2.664l-33.164,7.793c0.003,0.01,0.007,0.018,0.01,0.029l0.821,3.495l2.778,1.721c0.636,0.393,0.832,1.228,0.438,1.863
		l-1.303,2.104l1.91,1.183c0.635,0.393,0.832,1.228,0.438,1.863c-0.197,0.318-0.504,0.526-0.841,0.605s-0.705,0.03-1.022-0.167
		l-3.061-1.896c-0.635-0.393-0.832-1.228-0.438-1.863l1.303-2.104l-2.104-1.303c-0.305-0.189-0.523-0.491-0.605-0.841l-0.949-4.04
		c-0.002-0.01-0.002-0.02-0.004-0.03l-19.348,4.341c18.459,11.115,40.08,17.513,63.198,17.513c23.873,0,46.151-6.823,64.998-18.618
		l-5.806,1.364c-0.728,0.171-1.456-0.28-1.627-1.008l-3.057-13.009l-26.792,6.296c-0.728,0.171-1.456-0.28-1.627-1.008
		l-2.424-10.315l-16.251,3.819l0.31,1.318l5.051-1.187c0.728-0.171,1.456,0.28,1.627,1.008s-0.28,1.456-1.008,1.627l-5.051,1.187
		l0.33,1.405l6.588-1.548c0.728-0.171,1.456,0.28,1.627,1.008l3.096,13.177l15.373-3.612c0.728-0.171,1.456,0.28,1.627,1.008
		c0.171,0.728-0.28,1.456-1.008,1.627l-16.69,3.922c-0.728,0.171-1.456-0.28-1.627-1.008l-3.096-13.177l-17.788,4.18l1.231,5.241
		l3.953-0.929c0.728-0.171,1.456,0.28,1.627,1.008l0.56,2.383l5.38-1.264c0.728-0.171,1.456,0.28,1.627,1.008
		c0.171,0.728-0.28,1.456-1.008,1.627l-5.38,1.264l0.565,2.406l2.196-0.516c0.728-0.171,1.456,0.28,1.627,1.008
		c0.171,0.728-0.28,1.456-1.008,1.627l-3.514,0.826c-0.728,0.171-1.456-0.28-1.627-1.008l-1.745-7.424l-3.953,0.929
		c-0.728,0.171-1.456-0.28-1.627-1.008l-1.541-6.559l-10.761,2.529c-0.728,0.171-1.456-0.28-1.627-1.008
		c-0.171-0.728,0.28-1.456,1.008-1.627l10.761-2.529l-0.33-1.405L165.3,233.939z"/>
	<path style="fill:#41474A;" d="M172.677,230.816L172.677,230.816l-1.246-5.3c-0.171-0.728-0.899-1.179-1.627-1.008l-58.479,13.514
		c-0.147,0.035-0.279,0.097-0.401,0.173c0.614,0.202,1.761,0.639,2.982,1.974c0.007,0.004,0.014,0.009,0.021,0.013l19.385-4.318
		c0.002,0.01,0.002,0.02,0.004,0.03l0.95,4.04c0.082,0.35,0.299,0.652,0.605,0.841l2.104,1.303l-1.303,2.104
		c-0.394,0.635-0.198,1.47,0.438,1.863l3.061,1.896c0.318,0.197,0.685,0.246,1.022,0.167c0.337-0.079,0.645-0.287,0.841-0.605
		c0.394-0.635,0.198-1.47-0.438-1.863l-1.91-1.183l1.303-2.104c0.394-0.635,0.198-1.47-0.438-1.863l-2.778-1.721l-0.821-3.495
		c-0.002-0.01-0.007-0.019-0.01-0.029l33.164-7.793l0.626,2.664l-5.051,1.187c-0.728,0.171-1.179,0.899-1.008,1.627
		s0.9,1.179,1.627,1.008l5.051-1.187l0.33,1.405l2.635-0.619L172.677,230.816z"/>
	<path style="fill:#BD548B;" d="M110.924,238.195c-0.031,0.019-0.063,0.034-0.092,0.055c1.015,0.654,2.039,1.294,3.074,1.919
		C112.685,238.834,111.538,238.396,110.924,238.195z"/>
	<polygon style="fill:#BD548B;" points="172.677,230.816 172.677,230.815 172.677,230.816 	"/>
	<path style="fill:#BD548B;" d="M113.928,240.182c0.012,0.007,0.024,0.015,0.037,0.022l19.348-4.341L113.928,240.182z"/>
	<path style="fill:#BD548B;" d="M113.921,240.183l0.007-0.001c-0.007-0.004-0.014-0.009-0.021-0.013
		C113.911,240.174,113.916,240.178,113.921,240.183z"/>
</g>
<path style="fill:#BD548B;" d="M182.332,30.818c0,21.692,17.585,39.277,39.277,39.277c17.279,0,31.941-11.163,37.196-26.667
	c-19.457-17.348-44.471-28.595-72.043-30.725C183.938,18.125,182.332,24.283,182.332,30.818z"/>
<g>
	<path style="fill:#41474A;" d="M336.921,99.118L28.467,170.833c-3.974,0.924-6.786,4.465-6.786,8.545v54.718
		c0,5.648,5.259,9.824,10.76,8.545l308.454-71.715c3.974-0.924,6.786-4.465,6.786-8.545v-54.718
		C347.681,102.016,342.422,97.839,336.921,99.118z"/>
	<g>
		<path style="fill:none;" d="M341.857,130.068c-1.419-1.536-2.176-4.64-2.275-9.309l-0.187-8.868
			c-0.083-3.962-0.632-6.436-1.642-7.426c-0.549-0.51-1.347-0.773-2.396-0.785c-1.047-0.012-2.246,0.157-3.597,0.51l-5.11,1.328
			l-0.085-3.992l-284.862,66.23l0.074,3.5l-5.11,1.331c-2.928,0.761-4.887,1.882-5.874,3.363c-0.987,1.481-1.44,4.244-1.355,8.291
			l0.184,8.701c0.098,4.669-0.522,8.129-1.861,10.384c-0.712,1.181-1.687,2.245-2.928,3.193c-0.932,0.714-1.983,1.361-3.152,1.944
			v0.467c2.949-0.131,5.031,0.474,6.237,1.824c1.419,1.536,2.176,4.64,2.275,9.309l0.187,8.868c0.083,3.962,0.632,6.436,1.642,7.426
			c0.549,0.51,1.347,0.773,2.395,0.785c1.047,0.012,2.246-0.157,3.597-0.51l5.11-1.328l0.102,4.829l284.862-66.23l-0.091-4.337
			l5.11-1.331c2.928-0.761,4.887-1.882,5.874-3.363c0.987-1.481,1.44-4.244,1.355-8.291l-0.184-8.701
			c-0.098-4.669,0.522-8.129,1.861-10.384c0.712-1.181,1.687-2.245,2.928-3.193c0.818-0.627,1.737-1.198,2.739-1.723v-0.679
			C344.954,131.958,343.006,131.353,341.857,130.068z"/>
		<path style="fill:#EEFFFF;" d="M365.539,123.524l-3.882,1.009c-2.112,0.549-3.835,0.787-5.166,0.705
			c-1.332-0.08-2.373-0.421-3.122-1.024c-0.749-0.602-1.341-1.55-1.779-2.843c-0.168-0.495-0.298-1.087-0.409-1.728
			c-0.179-1.035-0.292-2.237-0.321-3.653l-0.193-9.122c-0.026-1.211-0.106-2.304-0.216-3.336c-1.699-4.739-6.217-8.144-11.525-8.144
			c-0.936,0-1.877,0.108-2.798,0.322l-9.639,2.241L41.628,164.18l-13.954,3.244c-0.133,0.031-0.261,0.074-0.392,0.109
			c-5.376,1.436-9.101,6.243-9.101,11.845v1.701c-0.093,1.228-0.134,2.533-0.104,3.94l0.104,4.942v7.203
			c-0.237,2.75-0.919,4.889-2.049,6.413c-1.487,2.036-4.213,3.572-8.185,4.604l-3.882,1.009l0.171,8.108l3.882-1.009
			c2.112-0.549,3.835-0.787,5.166-0.705c1.332,0.08,2.373,0.421,3.122,1.024c0.747,0.6,1.338,1.546,1.775,2.834v14.654
			c0,2.185,0.579,4.234,1.582,6.013c0.613,2.718,1.648,4.541,3.112,5.455c1.505,0.921,3.94,1.183,7.292,0.795
			c0.09,0.002,0.178,0.014,0.269,0.014c0.936,0,1.877-0.108,2.798-0.322l294.931-68.571l0.004,0.195l6.334-1.65
			c0.143-0.037,0.27-0.077,0.41-0.115c6.717-1.79,11.243-4.013,13.545-6.673c1.284-1.514,2.173-3.606,2.697-6.234
			c0.411-2.063,0.602-4.449,0.544-7.2l-0.193-9.126c-0.089-4.244,0.623-7.39,2.137-9.432c1.487-2.036,4.213-3.572,8.184-4.604
			l3.882-1.009L365.539,123.524z M344.942,134.304c-1.241,0.948-2.216,2.012-2.928,3.193c-1.339,2.255-1.959,5.715-1.861,10.384
			l0.184,8.701c0.085,4.047-0.368,6.81-1.355,8.291c-0.987,1.481-2.947,2.602-5.874,3.363l-5.11,1.331l0.091,4.337l-284.862,66.23
			l-0.102-4.829l-5.11,1.328c-1.351,0.353-2.55,0.522-3.597,0.51c-1.049-0.012-1.846-0.275-2.395-0.785
			c-1.011-0.99-1.56-3.464-1.642-7.426l-0.187-8.868c-0.099-4.669-0.857-7.773-2.275-9.309c-1.206-1.35-3.288-1.955-6.237-1.824
			v-0.467c1.17-0.582,2.22-1.23,3.152-1.944c1.241-0.948,2.216-2.012,2.928-3.193c1.339-2.255,1.959-5.715,1.861-10.384
			l-0.184-8.701c-0.085-4.047,0.368-6.81,1.355-8.291c0.987-1.481,2.946-2.602,5.874-3.363l5.11-1.331l-0.074-3.5l284.862-66.23
			l0.085,3.992l5.11-1.328c1.351-0.353,2.55-0.522,3.597-0.51c1.049,0.012,1.847,0.275,2.396,0.785
			c1.01,0.99,1.56,3.464,1.642,7.426l0.187,8.868c0.099,4.669,0.857,7.773,2.275,9.309c1.148,1.285,3.096,1.889,5.823,1.833v0.679
			C346.679,133.106,345.76,133.677,344.942,134.304z"/>
	</g>
</g>
<g>
	<path style="fill:#E54B8B;" d="M71.813,213.941c-2.386,0.549-4.497,0.64-6.333,0.272c-1.835-0.368-3.387-1.203-4.656-2.507
		c-2.523-2.595-3.763-6.897-3.72-12.908c0.044-6.01,1.351-10.905,3.92-14.688c1.293-1.893,2.861-3.447,4.708-4.662
		c1.848-1.216,3.965-2.098,6.351-2.646c0.72-0.166,1.404-0.287,2.053-0.364c0.647-0.078,1.283-0.116,1.907-0.116
		c1.263-0.003,2.428,0.159,3.497,0.487l-0.057,7.864c-0.717-0.505-1.357-0.88-1.923-1.125c-0.565-0.244-1.104-0.419-1.615-0.526
		c-0.606-0.131-1.201-0.189-1.784-0.175c-0.585,0.015-1.172,0.09-1.765,0.227c-2.562,0.59-4.515,2.06-5.858,4.411
		c-1.344,2.383-2.03,5.59-2.06,9.617c-0.029,4.028,0.613,6.912,1.928,8.652c1.297,1.761,3.235,2.344,5.813,1.751
		c1.233-0.284,2.428-0.822,3.584-1.616c0.562-0.383,1.121-0.828,1.678-1.33c0.554-0.503,1.178-1.146,1.872-1.928l-0.058,7.864
		c-1.142,0.838-2.321,1.54-3.54,2.108c-0.609,0.283-1.239,0.536-1.888,0.758C73.218,213.581,72.533,213.774,71.813,213.941z"/>
	<path style="fill:#E54B8B;" d="M97.175,208.103c-0.962,0.222-1.896,0.39-2.809,0.504c-0.913,0.113-1.824,0.164-2.735,0.15
		c-1.822-0.012-3.547-0.245-5.174-0.7l0.053-7.312c0.988,0.475,1.92,0.85,2.798,1.126c0.877,0.277,1.771,0.479,2.681,0.605
		c1.772,0.246,3.5,0.175,5.181-0.212c0.913-0.21,1.706-0.492,2.38-0.847c0.675-0.354,1.253-0.787,1.736-1.297
		c0.966-1.004,1.454-2.219,1.464-3.641c0.008-1.088-0.306-1.956-0.939-2.608c-0.334-0.338-0.735-0.608-1.205-0.812
		s-0.992-0.35-1.567-0.441l-3.473-0.518c-1.837-0.279-3.344-0.638-4.523-1.077c-1.181-0.438-2.08-0.954-2.699-1.546
		c-1.254-1.179-1.871-3.039-1.853-5.58c0.023-3.262,1.082-6.049,3.176-8.367c2.111-2.336,4.969-3.92,8.572-4.749
		c0.863-0.199,1.72-0.349,2.568-0.447c0.848-0.1,1.647-0.147,2.398-0.146c0.751,0.003,1.547,0.048,2.385,0.134
		c0.839,0.086,1.673,0.226,2.503,0.417l-0.051,6.906c-1.497-0.726-3.036-1.185-4.618-1.38c-1.579-0.194-3.139-0.114-4.676,0.239
		c-1.713,0.394-3.021,1.038-3.922,1.932c-0.918,0.913-1.382,1.993-1.392,3.24c-0.007,1.007,0.323,1.753,0.991,2.236
		c0.318,0.247,0.792,0.465,1.423,0.654c0.629,0.189,1.535,0.373,2.717,0.548l3.041,0.448c2.891,0.421,5.003,1.323,6.335,2.707
		c1.349,1.43,2.013,3.52,1.992,6.269c-0.025,3.532-1.116,6.433-3.276,8.7C104.483,205.528,101.322,207.149,97.175,208.103z"/>
	<path style="fill:#E54B8B;" d="M126.788,201.288c-0.961,0.221-1.896,0.389-2.809,0.503c-0.912,0.113-1.824,0.164-2.734,0.15
		c-1.823-0.012-3.547-0.245-5.175-0.7l0.053-7.312c0.988,0.475,1.921,0.85,2.798,1.126c0.878,0.277,1.771,0.479,2.681,0.604
		c1.773,0.246,3.5,0.176,5.181-0.211c0.913-0.21,1.707-0.492,2.381-0.848c0.675-0.354,1.252-0.786,1.735-1.296
		c0.967-1.005,1.455-2.219,1.465-3.642c0.008-1.087-0.307-1.955-0.94-2.607c-0.334-0.338-0.735-0.609-1.205-0.812
		c-0.469-0.202-0.991-0.35-1.567-0.44l-3.473-0.518c-1.836-0.279-3.344-0.638-4.523-1.077c-1.18-0.438-2.079-0.954-2.699-1.545
		c-1.254-1.18-1.871-3.041-1.853-5.58c0.023-3.262,1.082-6.051,3.177-8.368c2.111-2.337,4.968-3.92,8.571-4.749
		c0.864-0.199,1.721-0.349,2.568-0.447c0.848-0.1,1.647-0.148,2.399-0.146c0.751,0.003,1.546,0.048,2.385,0.134
		c0.838,0.086,1.672,0.225,2.503,0.417l-0.051,6.905c-1.498-0.725-3.037-1.184-4.618-1.379c-1.58-0.194-3.14-0.115-4.677,0.238
		c-1.713,0.395-3.021,1.039-3.922,1.933c-0.918,0.913-1.382,1.993-1.392,3.24c-0.007,1.007,0.323,1.753,0.991,2.236
		c0.318,0.247,0.792,0.464,1.423,0.654c0.629,0.189,1.535,0.373,2.717,0.548l3.042,0.448c2.89,0.421,5.002,1.323,6.334,2.707
		c1.35,1.43,2.014,3.52,1.993,6.269c-0.025,3.532-1.117,6.433-3.276,8.701C134.097,198.713,130.935,200.333,126.788,201.288z"/>
	<path style="fill:#31AFCB;" d="M145.978,160.44l7.59-1.746c5.86-1.349,10.069-0.93,12.627,1.259
		c1.255,1.084,2.204,2.681,2.844,4.791s0.948,4.789,0.925,8.033c-0.046,6.314-1.368,11.174-3.967,14.581
		c-2.599,3.406-6.827,5.784-12.688,7.133l-7.59,1.746L145.978,160.44z M154.772,187.786c2.787-0.642,4.778-1.978,5.977-4.009
		c1.197-2.03,1.812-5.141,1.842-9.328c0.03-4.156-0.542-6.977-1.713-8.462c-1.157-1.474-3.137-1.887-5.938-1.242l-1.921,0.441
		l-0.167,23.041L154.772,187.786z"/>
	<path style="fill:#31AFCB;" d="M182.774,151.972l8.671-1.996l9.42,33.569l-7.085,1.631l-2.146-8.339l-9.487,2.184l-2.225,9.345
		l-7.086,1.63L182.774,151.972z M190.308,171.325l-3.257-13.875l-3.444,15.418L190.308,171.325z"/>
	<path style="fill:#31AFCB;" d="M213.023,166.672l-10.914-19.15l7.637-1.758l6.861,12.782l7.094-15.994l7.637-1.758l-11.229,24.247
		l-0.102,14.099l-7.086,1.631L213.023,166.672z"/>
	<path style="fill:#31AFCB;" d="M245.962,174.171c-0.625,0.144-1.177,0.164-1.654,0.059c-0.479-0.105-0.918-0.312-1.315-0.62
		c-0.825-0.639-1.235-1.591-1.226-2.853c0.009-1.311,0.434-2.479,1.272-3.501c0.823-1.003,1.826-1.641,3.011-1.913
		c0.577-0.133,1.12-0.159,1.63-0.076c0.513,0.082,0.974,0.283,1.388,0.602c0.811,0.628,1.211,1.605,1.201,2.932
		c-0.01,1.279-0.426,2.42-1.248,3.422C248.182,173.245,247.163,173.895,245.962,174.171z"/>
	<path style="fill:#31AFCB;" d="M280.384,165.531c-3.346,0.771-5.742,0.46-7.187-0.932c-1.445-1.374-2.151-4.077-2.122-8.104
		l0.076-10.55l-5.692,1.31l0.039-5.395l12.729-2.929l-0.115,15.944c-0.016,2.094,0.303,3.512,0.952,4.256
		c0.635,0.732,1.744,0.916,3.33,0.551l5.619-1.293l-0.039,5.395L280.384,165.531z M271.934,137.196
		c-0.48,0.111-0.719-0.074-0.715-0.554l0.049-6.762c0.004-0.479,0.244-0.774,0.725-0.885l5.597-1.288
		c0.48-0.11,0.719,0.074,0.715,0.554l-0.049,6.762c-0.004,0.479-0.244,0.774-0.725,0.886L271.934,137.196z"/>
	<path style="fill:#31AFCB;" d="M305.311,160.201c-2.05,0.472-3.824,0.532-5.323,0.184c-1.501-0.349-2.751-0.975-3.751-1.877
		c-1.111-1.005-1.942-2.322-2.489-3.952c-0.549-1.629-0.813-3.498-0.799-5.607c0.016-2.143,0.314-4.146,0.895-6.012
		c0.581-1.865,1.428-3.549,2.543-5.049c1.113-1.502,2.438-2.747,3.972-3.738c1.532-0.99,3.245-1.705,5.135-2.14
		c1.969-0.453,3.711-0.522,5.228-0.21c1.517,0.314,2.799,0.939,3.848,1.879c1.048,0.94,1.861,2.201,2.441,3.782
		c0.58,1.583,0.862,3.509,0.846,5.778c-0.016,2.143-0.311,4.141-0.883,5.996c-0.574,1.855-1.416,3.541-2.53,5.059
		c-1.064,1.441-2.365,2.674-3.899,3.698C309.008,159.015,307.265,159.751,305.311,160.201z M305.329,154.5
		c1.696-0.39,3.031-1.432,4.002-3.123c0.972-1.709,1.467-3.889,1.485-6.542c0.02-2.622-0.445-4.565-1.396-5.83
		c-0.49-0.653-1.07-1.079-1.741-1.275c-0.67-0.197-1.413-0.201-2.229-0.014c-0.896,0.207-1.671,0.58-2.321,1.121
		c-0.652,0.541-1.204,1.207-1.657,1.997c-0.973,1.708-1.467,3.872-1.486,6.494c-0.019,2.653,0.445,4.612,1.396,5.878
		C302.331,154.456,303.648,154.888,305.329,154.5z"/>
</g>
</svg>
